<?xml version="1.0" standalone="no"?>
<!DOCTYPE svg PUBLIC "-//W3C//DTD SVG 20010904//EN"
 "http://www.w3.org/TR/2001/REC-SVG-20010904/DTD/svg10.dtd">
<svg version="1.0" xmlns="http://www.w3.org/2000/svg"
 width="1774.000000pt" height="871.000000pt" viewBox="0 0 1774.000000 871.000000"
 preserveAspectRatio="xMidYMid meet">

<g transform="translate(0.000000,871.000000) scale(0.100000,-0.100000)"
fill="#000000" stroke="none">
<path d="M12705 5976 c-271 -43 -432 -169 -492 -387 -17 -59 -18 -141 -18
-1094 0 -971 1 -1033 18 -1090 54 -176 175 -283 379 -334 121 -31 297 -44 436
-32 309 27 511 146 595 352 l22 54 0 1055 c0 996 -1 1058 -18 1115 -78 254
-311 377 -707 374 -74 -1 -171 -7 -215 -13z m280 -392 c46 -18 45 0 45 -1068
0 -715 -3 -1012 -11 -1029 -23 -50 -124 -65 -173 -26 l-26 20 0 1034 0 1034
26 20 c27 21 102 29 139 15z"/>
<path d="M14320 5984 c-154 -20 -311 -85 -395 -165 -64 -60 -100 -124 -125
-225 -19 -74 -20 -114 -20 -1113 0 -1132 -2 -1095 57 -1204 53 -97 175 -180
320 -218 93 -25 243 -29 323 -10 79 19 186 71 255 123 l60 46 40 -77 41 -76
157 -3 157 -3 0 721 0 720 -360 0 -360 0 0 -225 0 -225 65 0 65 0 0 -289 c0
-288 0 -290 -22 -305 -29 -20 -107 -20 -136 0 l-22 15 0 1043 c0 981 1 1044
18 1058 25 23 59 31 98 24 65 -13 64 -5 64 -347 l0 -309 297 0 296 0 -7 318
c-4 209 -11 335 -20 368 -46 172 -166 280 -373 335 -62 17 -114 22 -258 24
-99 2 -196 1 -215 -1z"/>
<path d="M2560 4515 l0 -1455 320 0 320 0 0 1455 0 1455 -320 0 -320 0 0
-1455z"/>
<path d="M3320 4515 l0 -1455 270 0 270 0 1 758 0 757 51 -180 c28 -99 124
-439 214 -755 l162 -575 331 -3 331 -2 0 1455 0 1455 -270 0 -270 0 -2 -645
-3 -646 -129 468 c-71 257 -152 548 -179 646 l-50 177 -363 0 -364 0 0 -1455z"/>
<path d="M5060 5780 l0 -190 180 0 180 0 0 -1265 0 -1265 320 0 320 0 0 1265
0 1265 180 0 180 0 -2 188 -3 187 -677 3 -678 2 0 -190z"/>
<path d="M6490 5755 l0 -215 115 0 115 0 -6 -27 c-12 -48 -51 -118 -98 -173
l-45 -52 56 -46 56 -45 36 19 c20 10 77 60 127 109 146 144 174 224 174 492
l0 153 -265 0 -265 0 0 -215z"/>
<path d="M9320 4515 l0 -1456 478 4 c420 3 484 6 537 21 172 51 310 156 369
279 19 40 39 96 45 125 7 33 11 191 11 416 0 304 -3 371 -16 417 -37 122 -135
214 -290 269 l-73 26 91 43 c110 53 191 128 234 216 l29 60 3 294 c4 338 -3
390 -68 489 -43 67 -90 107 -176 151 -173 88 -208 92 -726 98 l-448 5 0 -1457z
m746 1056 c73 -33 75 -46 72 -390 -3 -286 -4 -301 -24 -328 -25 -34 -63 -53
-115 -60 l-39 -6 0 402 0 401 33 0 c17 0 50 -9 73 -19z m22 -1131 c17 -13 36
-37 42 -53 6 -19 10 -180 10 -436 0 -367 -2 -409 -18 -441 -20 -40 -60 -65
-119 -75 l-43 -7 0 522 0 523 48 -5 c29 -3 61 -14 80 -28z"/>
<path d="M10900 4515 l0 -1455 600 0 600 0 0 185 0 185 -277 2 -278 3 -3 1268
-2 1267 -320 0 -320 0 0 -1455z"/>
<path d="M7629 5420 c-175 -21 -307 -78 -392 -170 -94 -101 -116 -194 -116
-480 -1 -189 10 -281 40 -351 39 -90 147 -170 457 -339 102 -56 163 -95 183
-119 47 -57 70 -147 76 -296 8 -197 -21 -276 -102 -275 -34 1 -56 15 -73 47
-8 15 -12 107 -12 297 l0 276 -290 0 -290 0 0 -279 c0 -153 5 -302 10 -331 34
-178 165 -296 385 -347 115 -26 436 -26 550 1 167 38 291 119 349 227 50 92
56 132 56 417 0 238 -2 268 -20 323 -45 134 -122 210 -306 303 -142 71 -285
158 -351 212 -63 52 -84 117 -91 280 -7 185 17 244 98 244 43 0 62 -18 87 -80
15 -39 17 -77 16 -267 l-1 -223 280 0 279 0 -3 293 c-3 276 -5 295 -26 349
-49 122 -147 206 -292 252 -128 41 -333 55 -501 36z"/>
</g>
</svg>
